<svg width="20" height="20" viewBox="0 0 20 20" fill="none" xmlns="http://www.w3.org/2000/svg">
<path fill-rule="evenodd" clip-rule="evenodd" d="M20 10C20 15.5228 15.5228 20 10 20C4.47715 20 0 15.5228 0 10C0 4.47715 4.47715 0 10 0C15.5228 0 20 4.47715 20 10ZM9.61393 11.213C9.16881 11.6582 8.48881 11.7685 7.92577 11.487C7.36274 11.2055 6.68273 11.3158 6.23761 11.7609L4.7209 13.2777C4.4607 13.5379 4.56529 13.9809 4.91439 14.0973C7.04887 14.8088 9.40214 14.2533 10.9931 12.6623L12.8989 10.7564C14.4333 9.22209 14.8137 6.87806 13.8433 4.93724C13.715 4.68077 13.3732 4.62531 13.1705 4.82806L11.4995 6.49899C11.0544 6.94411 10.9441 7.62412 11.2256 8.18716C11.5071 8.75019 11.3968 9.4302 10.9516 9.87532L9.61393 11.213Z" fill="#49BCF7"/>
</svg>
